<svg width="19" height="14" viewBox="0 0 19 14" fill="none" xmlns="http://www.w3.org/2000/svg">
<path d="M18.3948 0.501099H0.647949V13.3285H18.3948V0.501099Z" fill="white"/>
<path d="M8.97156 0.501099H0.647949V7.38559H8.97156V0.501099Z" fill="#3A3870"/>
<path d="M1.32598 0.770508L1.40279 1.04967H1.65747L1.4513 1.22474L1.52811 1.50391L1.32598 1.32884L1.12385 1.50391L1.20066 1.22474L0.998535 1.04967H1.24917L1.32598 0.770508Z" fill="white"/>
<path d="M2.74482 0.770508L2.82163 1.04967H3.07227L2.87014 1.22474L2.94695 1.50391L2.74482 1.32884L2.53865 1.50391L2.61546 1.22474L2.41333 1.04967H2.66397L2.74482 0.770508Z" fill="white"/>
<path d="M4.11944 0.770508L4.20029 1.04967H4.45093L4.24476 1.22474L4.32561 1.50391L4.11944 1.32884L3.91731 1.50391L3.99412 1.22474L3.79199 1.04967H4.04263L4.11944 0.770508Z" fill="white"/>
<path d="M5.49786 0.770508L5.57466 1.04967H5.82935L5.62318 1.22474L5.70403 1.50391L5.49786 1.32884L5.29573 1.50391L5.37254 1.22474L5.17041 1.04967H5.42105L5.49786 0.770508Z" fill="white"/>
<path d="M6.87627 0.770508L6.95308 1.04967H7.20776L7.00159 1.22474L7.0784 1.50391L6.87627 1.32884L6.67415 1.50391L6.75096 1.22474L6.54883 1.04967H6.79947L6.87627 0.770508Z" fill="white"/>
<path d="M7.60004 1.50415L7.67685 1.78332H7.92749L7.72536 1.95838L7.80217 2.23755L7.60004 2.06248L7.39792 2.23755L7.47472 1.95838L7.26855 1.78332H7.52324L7.60004 1.50415Z" fill="white"/>
<path d="M6.21734 1.50415L6.29415 1.78332H6.54883L6.34266 1.95838L6.41947 2.23755L6.21734 2.06248L6.01521 2.23755L6.09202 1.95838L5.88989 1.78332H6.14053L6.21734 1.50415Z" fill="white"/>
<path d="M4.83477 1.50415L4.91562 1.78332H5.16626L4.96009 1.95838L5.04094 2.23755L4.83477 2.06248L4.63264 2.23755L4.70945 1.95838L4.50732 1.78332H4.75796L4.83477 1.50415Z" fill="white"/>
<path d="M3.41596 1.50415L3.49277 1.78332H3.74341L3.54128 1.95838L3.61809 2.23755L3.41596 2.06248L3.21383 2.23755L3.29064 1.95838L3.08447 1.78332H3.33915L3.41596 1.50415Z" fill="white"/>
<path d="M2.0335 1.50415L2.11031 1.78332H2.36499L2.15882 1.95838L2.23967 2.23755L2.0335 2.06248L1.83137 2.23755L1.90818 1.95838L1.70605 1.78332H1.95669L2.0335 1.50415Z" fill="white"/>
<path d="M8.29536 0.770508L8.37216 1.04967H8.6228L8.42068 1.22474L8.49748 1.50391L8.29536 1.32884L8.08919 1.50391L8.16599 1.22474L7.96387 1.04967H8.21451L8.29536 0.770508Z" fill="white"/>
<path d="M1.32598 2.12878L1.40279 2.41268H1.65747L1.4513 2.58302L1.52811 2.86219L1.32598 2.69185L1.12385 2.86219L1.20066 2.58302L0.998535 2.41268H1.24917L1.32598 2.12878Z" fill="white"/>
<path d="M2.74482 2.12878L2.82163 2.41268H3.07227L2.87014 2.58302L2.94695 2.86219L2.74482 2.69185L2.53865 2.86219L2.61546 2.58302L2.41333 2.41268H2.66397L2.74482 2.12878Z" fill="white"/>
<path d="M4.11944 2.12878L4.20029 2.41268H4.45093L4.24476 2.58302L4.32561 2.86219L4.11944 2.69185L3.91731 2.86219L3.99412 2.58302L3.79199 2.41268H4.04263L4.11944 2.12878Z" fill="white"/>
<path d="M5.49786 2.12878L5.57466 2.41268H5.82935L5.62318 2.58302L5.70403 2.86219L5.49786 2.69185L5.29573 2.86219L5.37254 2.58302L5.17041 2.41268H5.42105L5.49786 2.12878Z" fill="white"/>
<path d="M6.87627 2.12878L6.95308 2.41268H7.20776L7.00159 2.58302L7.0784 2.86219L6.87627 2.69185L6.67415 2.86219L6.75096 2.58302L6.54883 2.41268H6.79947L6.87627 2.12878Z" fill="white"/>
<path d="M7.60004 2.86218L7.67685 3.14608H7.92749L7.72536 3.31642L7.80217 3.59558L7.60004 3.42524L7.39792 3.59558L7.47472 3.31642L7.26855 3.14608H7.52324L7.60004 2.86218Z" fill="white"/>
<path d="M6.21734 2.86218L6.29415 3.14608H6.54883L6.34266 3.31642L6.41947 3.59558L6.21734 3.42524L6.01521 3.59558L6.09202 3.31642L5.88989 3.14608H6.14053L6.21734 2.86218Z" fill="white"/>
<path d="M4.83477 2.86218L4.91562 3.14608H5.16626L4.96009 3.31642L5.04094 3.59558L4.83477 3.42524L4.63264 3.59558L4.70945 3.31642L4.50732 3.14608H4.75796L4.83477 2.86218Z" fill="white"/>
<path d="M3.41596 2.86218L3.49277 3.14608H3.74341L3.54128 3.31642L3.61809 3.59558L3.41596 3.42524L3.21383 3.59558L3.29064 3.31642L3.08447 3.14608H3.33915L3.41596 2.86218Z" fill="white"/>
<path d="M2.0335 2.86218L2.11031 3.14608H2.36499L2.15882 3.31642L2.23967 3.59558L2.0335 3.42524L1.83137 3.59558L1.90818 3.31642L1.70605 3.14608H1.95669L2.0335 2.86218Z" fill="white"/>
<path d="M8.29536 2.12878L8.37216 2.41268H8.6228L8.42068 2.58302L8.49748 2.86219L8.29536 2.69185L8.08919 2.86219L8.16599 2.58302L7.96387 2.41268H8.21451L8.29536 2.12878Z" fill="white"/>
<path d="M1.32598 3.49146L1.40279 3.77062H1.65747L1.4513 3.94569L1.52811 4.22485L1.32598 4.04978L1.12385 4.22485L1.20066 3.94569L0.998535 3.77062H1.24917L1.32598 3.49146Z" fill="white"/>
<path d="M2.74482 3.49146L2.82163 3.77062H3.07227L2.87014 3.94569L2.94695 4.22485L2.74482 4.04978L2.53865 4.22485L2.61546 3.94569L2.41333 3.77062H2.66397L2.74482 3.49146Z" fill="white"/>
<path d="M4.11944 3.49146L4.20029 3.77062H4.45093L4.24476 3.94569L4.32561 4.22485L4.11944 4.04978L3.91731 4.22485L3.99412 3.94569L3.79199 3.77062H4.04263L4.11944 3.49146Z" fill="white"/>
<path d="M5.49786 3.49146L5.57466 3.77062H5.82935L5.62318 3.94569L5.70403 4.22485L5.49786 4.04978L5.29573 4.22485L5.37254 3.94569L5.17041 3.77062H5.42105L5.49786 3.49146Z" fill="white"/>
<path d="M6.87627 3.49146L6.95308 3.77062H7.20776L7.00159 3.94569L7.0784 4.22485L6.87627 4.04978L6.67415 4.22485L6.75096 3.94569L6.54883 3.77062H6.79947L6.87627 3.49146Z" fill="white"/>
<path d="M7.60004 4.22485L7.67685 4.50402H7.92749L7.72536 4.67909L7.80217 4.95825L7.60004 4.78318L7.39792 4.95825L7.47472 4.67909L7.26855 4.50402H7.52324L7.60004 4.22485Z" fill="white"/>
<path d="M6.21734 4.22485L6.29415 4.50402H6.54883L6.34266 4.67909L6.41947 4.95825L6.21734 4.78318L6.01521 4.95825L6.09202 4.67909L5.88989 4.50402H6.14053L6.21734 4.22485Z" fill="white"/>
<path d="M4.83477 4.22485L4.91562 4.50402H5.16626L4.96009 4.67909L5.04094 4.95825L4.83477 4.78318L4.63264 4.95825L4.70945 4.67909L4.50732 4.50402H4.75796L4.83477 4.22485Z" fill="white"/>
<path d="M3.41596 4.22485L3.49277 4.50402H3.74341L3.54128 4.67909L3.61809 4.95825L3.41596 4.78318L3.21383 4.95825L3.29064 4.67909L3.08447 4.50402H3.33915L3.41596 4.22485Z" fill="white"/>
<path d="M2.0335 4.22485L2.11031 4.50402H2.36499L2.15882 4.67909L2.23967 4.95825L2.0335 4.78318L1.83137 4.95825L1.90818 4.67909L1.70605 4.50402H1.95669L2.0335 4.22485Z" fill="white"/>
<path d="M8.29536 3.49146L8.37216 3.77062H8.6228L8.42068 3.94569L8.49748 4.22485L8.29536 4.04978L8.08919 4.22485L8.16599 3.94569L7.96387 3.77062H8.21451L8.29536 3.49146Z" fill="white"/>
<path d="M1.32598 4.84949L1.40279 5.12865H1.65747L1.4513 5.30372L1.52811 5.58288L1.32598 5.41255L1.12385 5.58288L1.20066 5.30372L0.998535 5.12865H1.24917L1.32598 4.84949Z" fill="white"/>
<path d="M2.74482 4.84949L2.82163 5.12865H3.07227L2.87014 5.30372L2.94695 5.58288L2.74482 5.41255L2.53865 5.58288L2.61546 5.30372L2.41333 5.12865H2.66397L2.74482 4.84949Z" fill="white"/>
<path d="M4.11944 4.84949L4.20029 5.12865H4.45093L4.24476 5.30372L4.32561 5.58288L4.11944 5.41255L3.91731 5.58288L3.99412 5.30372L3.79199 5.12865H4.04263L4.11944 4.84949Z" fill="white"/>
<path d="M5.49786 4.84949L5.57466 5.12865H5.82935L5.62318 5.30372L5.70403 5.58288L5.49786 5.41255L5.29573 5.58288L5.37254 5.30372L5.17041 5.12865H5.42105L5.49786 4.84949Z" fill="white"/>
<path d="M6.87627 4.84949L6.95308 5.12865H7.20776L7.00159 5.30372L7.0784 5.58288L6.87627 5.41255L6.67415 5.58288L6.75096 5.30372L6.54883 5.12865H6.79947L6.87627 4.84949Z" fill="white"/>
<path d="M7.60004 5.58289L7.67685 5.86205H7.92749L7.72536 6.03712L7.80217 6.31628L7.60004 6.14595L7.39792 6.31628L7.47472 6.03712L7.26855 5.86205H7.52324L7.60004 5.58289Z" fill="white"/>
<path d="M6.21734 5.58289L6.29415 5.86205H6.54883L6.34266 6.03712L6.41947 6.31628L6.21734 6.14595L6.01521 6.31628L6.09202 6.03712L5.88989 5.86205H6.14053L6.21734 5.58289Z" fill="white"/>
<path d="M4.83477 5.58289L4.91562 5.86205H5.16626L4.96009 6.03712L5.04094 6.31628L4.83477 6.14595L4.63264 6.31628L4.70945 6.03712L4.50732 5.86205H4.75796L4.83477 5.58289Z" fill="white"/>
<path d="M3.41596 5.58289L3.49277 5.86205H3.74341L3.54128 6.03712L3.61809 6.31628L3.41596 6.14595L3.21383 6.31628L3.29064 6.03712L3.08447 5.86205H3.33915L3.41596 5.58289Z" fill="white"/>
<path d="M2.0335 5.58289L2.11031 5.86205H2.36499L2.15882 6.03712L2.23967 6.31628L2.0335 6.14595L1.83137 6.31628L1.90818 6.03712L1.70605 5.86205H1.95669L2.0335 5.58289Z" fill="white"/>
<path d="M8.29536 4.84949L8.37216 5.12865H8.6228L8.42068 5.30372L8.49748 5.58288L8.29536 5.41255L8.08919 5.58288L8.16599 5.30372L7.96387 5.12865H8.21451L8.29536 4.84949Z" fill="white"/>
<path d="M1.32598 6.21216L1.40279 6.49132H1.65747L1.4513 6.66166L1.52811 6.94555L1.32598 6.77048L1.12385 6.94555L1.20066 6.66166L0.998535 6.49132H1.24917L1.32598 6.21216Z" fill="white"/>
<path d="M2.74482 6.21216L2.82163 6.49132H3.07227L2.87014 6.66166L2.94695 6.94555L2.74482 6.77048L2.53865 6.94555L2.61546 6.66166L2.41333 6.49132H2.66397L2.74482 6.21216Z" fill="white"/>
<path d="M4.11944 6.21216L4.20029 6.49132H4.45093L4.24476 6.66166L4.32561 6.94555L4.11944 6.77048L3.91731 6.94555L3.99412 6.66166L3.79199 6.49132H4.04263L4.11944 6.21216Z" fill="white"/>
<path d="M5.49786 6.21216L5.57466 6.49132H5.82935L5.62318 6.66166L5.70403 6.94555L5.49786 6.77048L5.29573 6.94555L5.37254 6.66166L5.17041 6.49132H5.42105L5.49786 6.21216Z" fill="white"/>
<path d="M6.87627 6.21216L6.95308 6.49132H7.20776L7.00159 6.66166L7.0784 6.94555L6.87627 6.77048L6.67415 6.94555L6.75096 6.66166L6.54883 6.49132H6.79947L6.87627 6.21216Z" fill="white"/>
<path d="M8.29536 6.21216L8.37216 6.49132H8.6228L8.42068 6.66166L8.49748 6.94555L8.29536 6.77048L8.08919 6.94555L8.16599 6.66166L7.96387 6.49132H8.21451L8.29536 6.21216Z" fill="white"/>
<path d="M18.3895 0.501099H8.96631V1.5042H18.3895V0.501099Z" fill="#BA192C"/>
<path d="M18.3895 2.4978H8.96631V3.5009H18.3895V2.4978Z" fill="#BA192C"/>
<path d="M18.3895 4.45679H8.96631V5.45989H18.3895V4.45679Z" fill="#BA192C"/>
<path d="M18.3895 6.41089H8.96631V7.41399H18.3895V6.41089Z" fill="#BA192C"/>
<path d="M18.3937 8.36499H0.642822V9.36809H18.3937V8.36499Z" fill="#BA192C"/>
<path d="M18.3937 10.3477H0.642822V11.3508H18.3937V10.3477Z" fill="#BA192C"/>
<path d="M18.3937 12.3254H0.642822V13.3285H18.3937V12.3254Z" fill="#BA192C"/>
</svg>
